<!-- Generated by IcoMoon.io -->
<svg version="1.1" xmlns="http://www.w3.org/2000/svg" width="32" height="32" viewBox="0 0 32 32">

<style>
.icon3 {
    fill:#262626;
}
</style>


<path class="icon3" d="M29.884 9.594c0.296-0.060 0.516-0.318 0.516-0.628 0-0.21-0.102-0.397-0.259-0.514l-0.002-0.001c-0.773-0.562-1.766-1.117-2.51-0.951l1.547-3.84c0.029-0.070 0.046-0.152 0.046-0.238 0-0.353-0.287-0.64-0.64-0.64-0.085 0-0.167 0.017-0.241 0.047l0.004-0.002-3.845 1.547c0.166-0.743-0.389-1.737-0.951-2.507-0.118-0.159-0.305-0.26-0.515-0.26-0.309 0-0.568 0.22-0.627 0.512l-0.001 0.004c-0.355 1.599-0.837 3-1.455 4.326l0.054-0.128c0.434 0.283 0.813 0.59 1.156 0.933l2.592 2.592c0.344 0.343 0.652 0.721 0.919 1.129l0.016 0.027c1.197-0.566 2.598-1.050 4.057-1.38l0.139-0.026zM23.888 10.705l-2.593-2.592c-1.033-1.034-2.461-1.673-4.038-1.673-2.126 0-3.981 1.162-4.964 2.887l-0.015 0.028-2.848 5.060 3.093 5.095-4.442-2.694-6.269 11.144c-0.132 0.231-0.21 0.507-0.21 0.802 0 0.901 0.726 1.632 1.625 1.639h0.001c0.297-0.003 0.576-0.083 0.816-0.221l-0.008 0.004 4.869-2.736-1.635-3.033 3.589 1.934 10.007-5.621-2.746-4.795 5.469 3.132c1.209-1.055 1.969-2.598 1.969-4.319 0-1.578-0.639-3.006-1.672-4.041l0 0z"></path>
</svg>
