<!-- Generated by IcoMoon.io -->
<svg version="1.1" xmlns="http://www.w3.org/2000/svg" width="32" height="32" viewBox="0 0 32 32">
<title>icon1</title>
<path d="M27.845 7.584c-0.265-0.333-0.669-0.544-1.124-0.544-0 0-0.001 0-0.001 0h-14.56c-0.001 0-0.002 0-0.003 0-0.789 0-1.429 0.64-1.429 1.429 0 0.156 0.025 0.307 0.072 0.448l-0.003-0.010 2.68 8.366c0.118 0.362 0.453 0.619 0.847 0.619 0 0 0 0 0.001 0h10.901c0 0 0 0 0 0 0.417 0 0.768-0.287 0.864-0.675l0.001-0.006 2.020-8.411c0.025-0.099 0.039-0.214 0.039-0.331 0-0.335-0.116-0.644-0.309-0.888l0.002 0.003zM27.5 19.473h-14.060c-0.001 0-0.002 0-0.003 0-0.505 0-0.934-0.328-1.084-0.783l-0.002-0.008-3.87-11.982c-0.363-1.108-1.387-1.893-2.595-1.893-0.002 0-0.004 0-0.007 0h-0.845c-0.719 0-1.302 0.583-1.302 1.302s0.583 1.302 1.302 1.302v0h0.846c0 0 0 0 0.001 0 0.056 0 0.104 0.037 0.12 0.087l0 0.001 3.87 11.982c0.499 1.519 1.904 2.597 3.562 2.597 0.003 0 0.006 0 0.008 0h14.060c0.719 0 1.302-0.583 1.302-1.302s-0.583-1.302-1.302-1.302v0zM14.364 23.573c-1.145 0.002-2.071 0.931-2.071 2.076 0 1.146 0.929 2.076 2.076 2.076s2.075-0.929 2.076-2.075v-0c-0.001-1.147-0.93-2.076-2.077-2.076-0.001 0-0.002 0-0.003 0h0zM25.279 23.573c-1.144 0.003-2.070 0.931-2.070 2.076 0 1.146 0.929 2.076 2.076 2.076 1.145 0 2.073-0.927 2.076-2.071v-0c0-1.149-0.931-2.080-2.080-2.080v0z"></path>
</svg>
