<!-- Generated by IcoMoon.io -->
<svg version="1.1" xmlns="http://www.w3.org/2000/svg" width="32" height="32" viewBox="0 0 32 32">

<style>
.icon {
    fill:#262626;
}
</style>


<path class="icon" d="M23.693 21.853c0.341 0.024 0.685 0.048 1.022 0.061-1.729 2.562-4.539 4.279-7.762 4.495l-0.031 0.002c0.16-0.309 0.32-0.625 0.473-0.945 0.877-0.11 1.674-0.328 2.42-0.643l-0.060 0.022c0.008-0.013 0.015-0.028 0.020-0.044l0-0.001c0.027-0.075 0.066-0.139 0.115-0.195l-0.001 0.001-0.045-0.112 0.099-0.14c0.054-0.089 0.114-0.166 0.182-0.236l-0 0c0.070-0.053 0.655-0.56 0.783-0.655 0.11-0.087 0.597-0.451 0.809-0.623 0.029-0.023 0.053-0.046 0.073-0.060 0.183-0.184 0.349-0.386 0.494-0.602l0.009-0.015c0.065-0.117 0.129-0.256 0.182-0.4l0.007-0.022c0.405 0.044 0.811 0.082 1.211 0.113zM13.767 22.54c-0.038-0.006 0.011 0.021 0.044 0.038-0.007-0.019-0.024-0.033-0.043-0.038l-0-0zM21.387 21.827c0.050 0.004 0.108 0.006 0.167 0.006s0.117-0.002 0.175-0.006l-0.008 0h0.030c0.127-0.014 0.242-0.059 0.338-0.128l-0.002 0.002 0.012-0.006c-0.124-0.016-0.251-0.031-0.373-0.049s-0.249-0.034-0.373-0.053c0.060 0.023 0.105 0.073 0.123 0.134l0 0.001c-0.074 0.030-0.199 0.086-0.088 0.1zM13.813 22.578c0 0.001 0 0.001 0 0.002s-0 0.001-0 0.002v-0c0.035 0.015 0.021 0.009 0-0.004zM16.97 15.052l0.015 0.017c0.006-0.015-0.017-0.017-0.017-0.017zM20.342 17.273h-0.022l-0.019 0.080c-0.089 0.325-0.179 0.656-0.274 0.985 0.076 0 0.148 0.009 0.148 0.009 0.054-0.030 0.094-0.082 0.106-0.144l0-0.001c0.021-0.087 0.050-0.163 0.087-0.234l-0.003 0.006 0.060 0.012c0.031-0.052 0.051-0.114 0.053-0.181l0-0.001c-0.016-0.101-0.039-0.191-0.070-0.277l0.003 0.010c0.007-0.106 0.018-0.203 0.035-0.298l-0.002 0.016zM19.893 18.781l-0.045 0.151 0.069-0.012 0.043 0.115c0.017-0.037 0.027-0.065 0.027-0.065-0.003-0.053-0.011-0.102-0.025-0.149l0.001 0.005c-0.017-0.022-0.041-0.038-0.069-0.044l-0.001-0zM20.767 15.581l-0.021-0.010c-0.049 0.201-0.095 0.401-0.146 0.599 0.029 0.025 0.067 0.040 0.109 0.040 0.015 0 0.030-0.002 0.044-0.006l-0.001 0c0.059 0.007 0.128 0.011 0.198 0.011 0.006 0 0.011-0 0.017-0h-0.001c0.15 0 0.174 0.018 0.201-0.045s0.035 0.035 0.035-0.131c0-0.006 0.001-0.012 0.001-0.019 0-0.107-0.051-0.202-0.131-0.261l-0.001-0.001c-0.087-0.069-0.186-0.128-0.292-0.174l-0.008-0.003zM30.364 20.049c-0.45 1.678-5.343 1.879-11.552 0.64-2.031 5.995-4.652 10.13-6.332 9.682-1.059-0.284-1.529-2.335-1.423-5.367 0.037 0.019 0.073 0.042 0.107 0.060-2.868-1.678-4.819-4.653-5.050-8.099l-0.002-0.031c0.295 0.154 0.595 0.301 0.899 0.449 1.087 0.52 2.228 0.995 3.386 1.42h-0.001l0.003 0.061-0.166 0.294-0.154 0.097 0.042 0.070 0.028 0.14h-0.086v0.307c0.043 0.085 0.126 0.145 0.223 0.154l0.001 0-0.070 0.044c0.020 0.069 0.049 0.129 0.086 0.183l-0.001-0.002c0.060 0.088 0.112 0.19 0.151 0.297l0.003 0.009c0.028 0.098 0.070 0.373 0.070 0.373s0.183 0.307 0.267 0.436c0.107 0.127 0.212 0.268 0.309 0.415l0.011 0.017c0.070 0.14 0.223 0.070 0.516 0.14 0.158 0.030 0.299 0.088 0.422 0.17l-0.004-0.003c0.074 0.060 0.156 0.12 0.242 0.175l0.011 0.007c0.099 0.039 0.213 0.062 0.333 0.062 0.045 0 0.089-0.003 0.132-0.009l-0.005 0.001c0.143 0.002 0.28 0.024 0.409 0.066l-0.010-0.003 0.050 0.007c0.169 0.014 0.319 0.084 0.434 0.191l-0-0 0.017 0.006c0.087 0.038 0.133 0.057 0.16 0.070 0.016 0.070 0.025 0.151 0.025 0.234 0 0.001 0 0.001 0 0.002v-0c0.014 0.070 0.113-0.014 0.182-0.014 0.051 0.015 0.094 0.042 0.127 0.080l0 0c0.020 0.013 0.042 0.023 0.066 0.031l0.002 0.001c0.125 0.042 0.153-0.042 0.153-0.042l0.139 0.171 0.112 0.154-0.112 0.267-0.098 0.097c0.004-0.034 0.007-0.073 0.007-0.113s-0.002-0.079-0.007-0.118l0 0.005c-0.015-0.097-0.098 0.045-0.098 0.045l-0.084 0.267 0.306 0.295 0.093 0.083 0.201 0.183 0.013 0.036 0.114 0.328-0.015 0.111 0.070 0.183c-0.047 0.020-0.103 0.038-0.161 0.052l-0.007 0.001c-0.024 0.007-0.053 0.012-0.082 0.014l-0.001 0c-0.055 0.016-0.101 0.050-0.13 0.096l-0.001 0.001c-0.027 0.033-0.053 0.069-0.077 0.107l-0.002 0.004c0.026 0.049 0.052 0.091 0.081 0.13l-0.002-0.003c0.029 0.043 0.063 0.079 0.102 0.11l0.001 0.001c0.020 0.016 0.037 0.022 0.053 0.037 0.015 0 0.030 0.006 0.045 0.007-0.003 0.007-0.007 0.012-0.010 0.017l0-0-0.042 0.071c-0.122 0.21-0.274 0.468-0.45 0.741-1.104-0.218-2.087-0.583-2.986-1.080l0.053 0.027h0.005c0.027 1.831 0.37 3.019 1.042 3.2 1.271 0.34 3.332-3.044 5.033-7.993q-1.073-0.239-2.18-0.538c-7.785-2.085-13.668-5.386-13.136-7.371 0.284-1.058 2.333-1.529 5.366-1.422-0.035 0.059-0.068 0.122-0.101 0.181 1.78-3.094 5.068-5.143 8.834-5.143 0.019 0 0.039 0 0.058 0h-0.003c-0.061 0-0.124-0.003-0.187 0 1.424-2.677 2.859-4.219 3.915-3.935 1.986 0.533 1.905 7.278-0.183 15.062-0.194 0.738-0.405 1.458-0.621 2.156 5.138 1.003 9.098 0.91 9.444-0.361 0.18-0.67-0.679-1.56-2.252-2.499v-0.015c-0.029 1.108-0.23 2.16-0.577 3.142l0.022-0.071c-0.325 0.018-0.623 0.018-0.865 0.018v0c-0.197 0-0.351-0.003-0.443-0.007-0.267-0.010-0.529-0.021-0.795-0.042 0.032-0.092 0.065-0.21 0.092-0.33l0.004-0.021c0.018-0.085 0.039-0.157 0.065-0.228l-0.004 0.011-0.313-0.071-0.036-0.204-0.132-0.023-0.121 0.23c-0.054 0.081-0.122 0.148-0.202 0.2l-0.003 0.002c-0.073 0.037-0.158 0.062-0.248 0.071l-0.003 0 0.035-0.165c-0.015-0.002-0.033-0.004-0.050-0.004-0.047 0-0.091 0.010-0.131 0.027l0.002-0.001-0.013-0.157c-0.027-0.069-0.073-0.126-0.13-0.166l-0.001-0.001c-0.063-0.037-0.116-0.085-0.156-0.143l-0.001-0.002c-0.028-0.042-0.052-0.090-0.070-0.14l-0.001-0.005c-0.003-0.004-0.007-0.007-0.010-0.009l-0-0 0.018-0.083s0.114-0.126 0.207-0.237 0.125 0.111 0.222 0.193c0.043 0.039 0.069 0.095 0.069 0.157 0 0.017-0.002 0.033-0.006 0.049l0-0.001c0.042 0.020 0.091 0.032 0.143 0.033h0c0.001-0 0.002-0 0.004-0 0.046 0 0.087 0.025 0.108 0.062l0 0.001 0.161 0.063 0.16-0.176c0.019-0.063 0.075-0.109 0.143-0.111h0c0.111 0 0.018 0.143 0.018 0.225s0.079 0 0.302-0.095c0.128-0.060 0.238-0.124 0.341-0.197l-0.007 0.005c0.075-0.026 0.135-0.076 0.174-0.141l0.001-0.002c0.053-0.041 0.1-0.083 0.145-0.127l-0 0 0.174 0.114 0.193-0.033 0.193-0.112v0.145c-0.041 0.046-0.066 0.107-0.066 0.174 0 0.033 0.006 0.065 0.018 0.095l-0.001-0.002c0.081 0.112 0.095 0.079 0.049 0.223-0.016 0.033-0.026 0.071-0.026 0.112s0.010 0.079 0.027 0.113l-0.001-0.001c0.009 0.030 0.015 0.065 0.017 0.1l0 0.001c0.257-0.811 0.406-1.743 0.406-2.711 0-3.009-1.435-5.682-3.657-7.374l-0.023-0.017q0.042-0.533 0.065-1.059c2.74 1.85 4.518 4.945 4.518 8.454 0 0.001 0 0.002 0 0.003v-0c0-0.046 0-0.092 0-0.139 2.674 1.424 4.214 2.853 3.931 3.916zM18.18 8.998s0.101-0.057 0.15-0.079 0-0.027-0.050-0.063c-0.011-0.004-0.024-0.007-0.037-0.007-0.031 0-0.058 0.013-0.077 0.035l-0 0c-0.023 0.026-0.042 0.056-0.056 0.090l-0.001 0.002c-0.002 0.005-0.005 0.010-0.008 0.015l0-0c-0.027 0.034-0.057-0.053-0.064-0.099-0.033-0.017-0.071-0.027-0.112-0.027-0.026 0-0.052 0.004-0.076 0.012l0.002-0.001c0.016 0.026 0.031 0.057 0.042 0.089l0.001 0.004c0.006 0.034 0.012 0.076 0.015 0.118l0 0.004c-0 0.006-0.001 0.013-0.001 0.021 0 0.045 0.011 0.087 0.030 0.124l-0.001-0.002c0.032 0.040 0.067 0.075 0.105 0.106l0.001 0.001 0.057-0.037 0.021-0.014 0.086-0.143 0.071-0.064zM17.037 8.365s0.012-0.101 0.067-0.088c0.054-0.027 0.095-0.075 0.112-0.133l0-0.002c-0.019-0.042-0.055-0.075-0.099-0.089l-0.001-0c-0.057 0-0.18 0.012-0.18 0.012l-0.034-0.068c-0.010-0.001-0.022-0.002-0.034-0.002-0.044 0-0.087 0.009-0.126 0.024l0.002-0.001c-0.011 0.006-0.024 0.010-0.039 0.010-0.035 0-0.065-0.023-0.075-0.054l-0-0.001-0.011-0.134-0.124 0.034-0.090-0.079s-0.033-0.067 0.022-0.067c0.049 0.001 0.095 0.006 0.14 0.013l-0.006-0.001 0.113-0.079-0.045-0.087 0.078-0.089c-0.032-0.022-0.073-0.035-0.116-0.035-0.027 0-0.053 0.005-0.076 0.015l0.001-0c-0.043 0.045-0.097 0.079-0.157 0.099l-0.003 0.001c0-0.001 0-0.001 0-0.002 0-0.048-0.020-0.092-0.053-0.122l-0-0c-0.066-0.090 0.033-0.134-0.113-0.101-0.076 0.019-0.142 0.051-0.199 0.095l0.001-0.001c-0.018 0.013-0.035 0.026-0.050 0.040l0-0c-0.067 0.009-0.125 0.042-0.166 0.089l-0 0c0.048 0.052 0.115 0.085 0.19 0.089l0.001 0c0.008-0.011 0.017-0.020 0.026-0.029l0-0c0.029-0.032 0.084-0.077 0.121-0.037 0.036 0.037 0.069 0.078 0.098 0.121l0.002 0.003-0.213 0.111-0.008-0.007-0.107-0.083h-0.213l-0.1 0.045-0.202 0.022c0.017 0.046 0.029 0.099 0.034 0.154l0 0.003c-0.014 0.049-0.046 0.089-0.089 0.113l-0.001 0.001-0.116-0.014h-0.015l-0.124 0.089c-0.070 0.005-0.136 0.024-0.194 0.055l0.003-0.001c-0.008 0.008-0.017 0.013-0.028 0.015l-0 0c-0.053 0.014-0.107-0.021-0.107 0.053 0 0.090 0.011 0.134-0.053 0.146-0.015 0.004-0.033 0.007-0.053 0.010l-0.16 0.035c-0.048 0.025-0.088 0.054-0.124 0.089l0-0c-0.051 0.040-0.111 0.070-0.176 0.089l-0.004 0.001-0.018-0.005-0.206-0.043-0.291 0.124-0.009 0.018-0.059 0.14-0.191 0.022c-0.068 0.030-0.125 0.075-0.167 0.132l-0.001 0.001c-0.012 0.031-0.034 0.057-0.062 0.073l-0.001 0c-0.014 0.010-0.031 0.020-0.048 0.028l-0.002 0.001c-0.065 0.026-0.12 0.056-0.172 0.091l0.003-0.002c-0.045 0.040-0.086 0.084-0.122 0.131l-0.002 0.002-0.046 0.101 0.080 0.114-0.179 0.021 0.023 0.090c0.090 0.090 0.147 0.134 0.202 0.090 0.020-0.042 0.050-0.076 0.088-0.101l0.001-0.001c0.040-0.014 0.111-0.038 0.173-0.060 0.045-0.016 0.086-0.031 0.107-0.041 0.061-0.042 0.132-0.076 0.208-0.098l0.005-0.001c0.048-0 0.094-0.005 0.14-0.012l-0.005 0.001 0.027-0.021 0.153-0.124 0.18 0.080 0.146-0.022c0.001 0.025 0.011 0.048 0.026 0.065l-0-0c0.012 0.011 0.026 0.019 0.041 0.023l0.001 0c0.050 0.014 0.108 0.022 0.167 0.022h0c0.031-0.043 0.079-0.073 0.134-0.079l0.001-0h0.201l0.023-0.1 0.127 0.059 0.018 0.009 0.099 0.078s-0.045 0.012 0.067 0.057c0.028 0.011 0.060 0.017 0.093 0.017 0.028 0 0.056-0.005 0.081-0.013l-0.002 0.001c0.016-0.005 0.030-0.011 0.043-0.018l-0.001 0.001 0.191 0.045s0.012-0.179-0.045-0.179c-0.063-0.009-0.119-0.028-0.171-0.055l0.003 0.001 0.123-0.045 0.134-0.025 0.034 0.147 0.213-0.068-0.033-0.123 0.011-0.191 0.202 0.034 0.012 0.134c0.024 0.011 0.051 0.020 0.080 0.027l0.003 0.001c0.047 0.013 0.097 0.015 0.097-0.027 0-0.079-0.045-0.134 0.011-0.134 0.063-0.006 0.12-0.018 0.175-0.035l-0.006 0.002 0.053-0.079 0.079-0.18 0.089 0.135 0.124-0.079-0.023-0.113 0.267-0.124s0.16-0.022 0.227-0.022c0.005 0.001 0.010 0.001 0.015 0.001 0.027 0 0.052-0.008 0.074-0.021l-0.001 0s0.045-0.090-0.022-0.090c-0.046-0.003-0.086-0.023-0.116-0.053v0zM14.355 12.707l-0.112 0.053 0.259 0.125 0.126 0.006 0.095 0.006c0.038-0.065 0.067-0.141 0.080-0.221l0.001-0.004c-0-0.002-0-0.003-0-0.005 0-0.034 0.015-0.065 0.038-0.086l0-0c0.023-0.018 0.058-0.030 0.107-0.066 0.039-0.015 0.066-0.052 0.066-0.096 0-0.023-0.008-0.044-0.020-0.061l0 0c-0.026-0.029-0.064-0.046-0.106-0.046-0.017 0-0.033 0.003-0.048 0.008l0.001-0-0.027 0.003-0.186 0.093-0.014 0.011-0.089-0.113-0.124 0.033-0.123 0.124c0.003-0 0.006-0 0.009-0 0.025 0 0.049 0.004 0.072 0.012l-0.002-0c0.019-0.004 0.040-0.006 0.062-0.006s0.043 0.002 0.064 0.007l-0.002-0c0.089 0.012-0.022 0.089-0.022 0.089l-0.18 0.045zM14.781 10.082l-0.154 0.010h-0.004c-0.007 0.035-0.011 0.076-0.011 0.117 0 0.049 0.006 0.096 0.016 0.142l-0.001-0.004c0.002 0.007 0.005 0.013 0.007 0.018l-0-0.001c0.041 0.078 0.116 0.132 0.206 0.143l0.001 0c0.016 0.002 0.034 0.003 0.053 0.003 0.036 0 0.070-0.005 0.103-0.013l-0.003 0.001c0.1-0.021 0.131-0.028 0.136-0.028l-0.014 0.005c0.005-0.001 0.010-0.002 0.014-0.005l-0 0 0.069-0.027 0.087-0.035c0.067-0.037 0.117-0.095 0.144-0.165l0.001-0.002c0-0.080-0.124-0.053-0.225-0.053h-0.007c-0.092 0-0.084-0.014-0.127-0.124s-0.045 0.066-0.045 0.066c-0.044-0.023-0.076-0.062-0.088-0.11l-0-0.001c-0.025-0.052-0.044-0.112-0.055-0.175l-0.001-0.004-0.040 0.020-0.127 0.068 0.033 0.067zM14.667 13.3s0.045 0.053 0.113 0.147c0.028 0.038 0.047 0.026 0.060 0 0.007-0.038 0.030-0.070 0.061-0.090l0.001-0c0.053 0 0.012 0.090 0.079 0.079 0.064-0.007 0.138-0.012 0.213-0.012v0l0.006 0.005 0.097 0.107c0.053-0.024 0.095-0.063 0.123-0.111l0.001-0.001c0.012-0.053 0.012-0.053 0.101-0.053s0.056-0.012 0.169-0.102-0.034-0.166-0.124-0.213-0.013-0.124-0.013-0.124l0.013-0.16c-0.001-0.049-0.006-0.095-0.014-0.141l0.001 0.006c-0.011-0.078-0.033-0.134-0.044-0.213-0.005-0.033-0.032-0.057-0.066-0.057-0.008 0-0.016 0.002-0.024 0.004l0-0v-0.101c0.004 0 0.009 0 0.014 0 0.075 0 0.147-0.008 0.217-0.024l-0.007 0.001c0.053-0.021 0-0.134 0-0.134s-0.133-0.053-0.235-0.089-0.034-0.053 0.134-0.067 0.022-0.090 0.022-0.090l-0.134-0.078c-0.048 0.058-0.108 0.104-0.177 0.133l-0.003 0.001c-0.021 0.007-0.038 0.017-0.053 0.031l0-0c-0.019 0.039-0.035 0.084-0.047 0.132l-0.001 0.005v0.089l0.050 0.087 0.030 0.053c-0.009 0.037-0.019 0.069-0.032 0.1l0.002-0.005c-0.010 0.028-0.023 0.052-0.038 0.074l0.001-0.001c-0.008 0.017-0.013 0.036-0.013 0.057 0 0.035 0.013 0.066 0.035 0.090l-0-0c0 0.001 0 0.003 0 0.005 0 0.078-0.008 0.154-0.023 0.228l0.001-0.007c-0.022 0.078-0.193-0.068-0.193-0.068l-0.037 0.188h-0.153l0.022 0.101 0.038 0.029 0.062 0.049 0.067 0.101-0.129-0.047-0.061-0.020zM12.907 8.242l-0.191 0.202c0.061 0.014 0.13 0.022 0.202 0.022 0.008 0 0.016-0 0.024-0l-0.001 0c0.083-0.038 0.155-0.082 0.22-0.133l-0.002 0.002c0.068-0.047 0.136-0.093 0.187-0.126 0.035-0.035 0.084-0.056 0.137-0.056 0.011 0 0.022 0.001 0.033 0.003l-0.001-0 0.045 0.089-0.27 0.16 0.315-0.045 0.037-0.035 0.121-0.111 0.124-0.146 0.195 0.008 0.071-0.026 0.163-0.062c0.077-0.051 0.141-0.115 0.191-0.189l0.002-0.002c0.043-0.079 0.073-0.034 0.127-0.022 0.008 0.002 0.017 0.004 0.027 0.004s0.019-0.001 0.027-0.004l-0.001 0c0.089-0.021 0.045-0.101 0.045-0.179 0-0.038 0.053-0.042 0.117-0.041 0.017 0.003 0.036 0.004 0.055 0.004 0.043 0 0.084-0.007 0.123-0.021l-0.003 0.001c0.067-0.046-0.056-0.134-0.146-0.16l-0.029-0.006c-0.071-0.017-0.107-0.025-0.117-0.094-0.011-0.033-0.041-0.056-0.076-0.056-0.007 0-0.014 0.001-0.021 0.003l0.001-0c-0.048 0.003-0.091 0.017-0.129 0.041l0.001-0.001c-0.067 0.046-0.201 0.053-0.16-0.033 0.007-0.011 0.015-0.020 0.023-0.028l0-0c-0.418 0.088-0.767 0.186-1.107 0.301l0.067-0.020c0.078 0 0.111 0.004 0.16 0.004 0.067 0-0.067 0.079-0.067 0.079-0.1 0.032-0.185 0.071-0.266 0.117l0.007-0.004-0.006 0.006c-0.019 0.022-0.031 0.051-0.031 0.082 0 0.013 0.002 0.025 0.005 0.036l-0-0.001h0.026c0.050-0 0.099-0.005 0.147-0.012l-0.005 0.001c0.094-0.029 0.176-0.072 0.248-0.126l-0.002 0.002c0.048-0.028 0.075-0.044 0.093-0.053 0.037-0.010 0.069-0.023 0.1-0.039l-0.003 0.001c0.078-0.047 0.021 0.123 0.021 0.123l0.213-0.079 0.173-0.007 0.063-0.004 0.067-0.124-0.13-0.028-0.071-0.017 0.068-0.067h0.004c0.008-0 0.018-0 0.028-0 0.091 0 0.182 0.005 0.271 0.014l-0.011-0.001c0.068 0.010 0 0.089 0 0.089l-0.021 0.089-0.078 0.146s-0.101 0.012-0.18 0.012h-0.006c-0.063 0.014-0.118 0.046-0.16 0.089l-0 0-0.16 0.111h-0.223l-0.034 0.124-0.18-0.021c-0.014-0.038-0.025-0.084-0.033-0.13l-0.001-0.004c-0.012-0.080-0.090 0-0.090 0-0.018 0.075-0.055 0.14-0.107 0.19l-0 0c-0.014 0.011-0.031 0.019-0.049 0.022l-0.001 0c-0.083 0.026-0.152 0.075-0.203 0.138l-0.001 0.001zM15.351 7.054c-0.097 0.009-0.193 0.018-0.288 0.030 0.012 0 0.022 0.007 0.053 0.013 0.067 0.011 0.011 0.033 0.011 0.089 0 0.037 0.016 0.053 0.071 0.061 0.028 0.005 0.067 0.010 0.121 0.018 0.16 0.022 0.053-0.046 0.033-0.179-0.001-0.005-0.001-0.011-0.001-0.018 0-0.005 0-0.010 0.001-0.014l-0 0.001zM14.746 7.186c0.008-0.016 0.015-0.035 0.021-0.055l0.001-0.002c-0.017 0.003-0.033 0.005-0.049 0.007 0.014 0.013 0.025 0.030 0.029 0.049l0 0.001zM16.032 7.010c-0.012 0.022-0.019 0.048-0.019 0.076 0 0.004 0 0.008 0 0.012l-0-0.001c0.012 0.1 0.034 0 0.101-0.022 0.032-0.007 0.055-0.034 0.058-0.066v-0c-0.043-0.001-0.090 0.001-0.139 0.001zM9.457 9.981l0.143 0.010 0.18-0.113 0.18 0.053-0.101 0.046c-0.043 0.061-0.085 0.131-0.12 0.205l-0.004 0.009c0.057 0.037 0.127 0.059 0.202 0.059 0.023 0 0.046-0.002 0.067-0.006l-0.002 0c0.034-0.087 0.062-0.189 0.077-0.295l0.001-0.008c0.054-0.077 0.138-0.131 0.234-0.146l0.002-0 0.067-0.179 0.114 0.079c0.029-0.052 0.049-0.113 0.053-0.178l0-0.001c-0.057-0.043-0.128-0.068-0.206-0.068-0.003 0-0.005 0-0.008 0h0l0.201-0.1 0.202 0.053-0.046 0.392h0.202l0.046 0.073c-0.096 0.058-0.207 0.11-0.324 0.152l-0.013 0.004c-0.072 0.036-0.132 0.086-0.179 0.147l-0.001 0.001-0.111 0.124c0.033 0.043 0.079 0.075 0.132 0.089l0.002 0c0.045 0.002 0.081 0.035 0.088 0.077l0 0.001c0.057-0.017 0.102-0.058 0.124-0.111l0-0.001c0-0.003 0-0.005 0-0.008 0-0.034-0.018-0.064-0.045-0.080l-0-0 0.168-0.191c0.066-0.079 0.427-0.236 0.493-0.315 0.023-0.019 0.037-0.047 0.037-0.079 0-0.020-0.006-0.039-0.016-0.055l0 0 0.169-0.101s0.045-0.213 0.067-0.267c0.125-0.102 0.265-0.199 0.412-0.284l0.015-0.008c0.113-0.097 0.254-0.165 0.41-0.19l0.005-0.001c0.226-0.057 0.068-0.081 0.053-0.148s-0.19 0.090-0.19 0.090l-0.267-0.079c0.086-0.006 0.163-0.038 0.225-0.089l-0.001 0.001c0.042-0.034 0.095-0.054 0.154-0.054 0.005 0 0.010 0 0.015 0l-0.001-0c0.079-0.033 0.056-0.068 0.056-0.068h0.123c0.058-0.057 0.111-0.119 0.157-0.186l0.003-0.004c0.053-0.089 0.18-0.258 0.18-0.258s-0.28 0.16-0.337 0.179c-0.009 0-0.020 0.001-0.030 0.001-0.065 0-0.128-0.008-0.188-0.023l0.005 0.001c-0.109 0.050-0.201 0.102-0.288 0.161l0.007-0.004c-0.112 0.046-0.236 0.113-0.236 0.113l-0.167-0.033-0.134 0.053-0.326 0.135c0.055-0.041 0.118-0.082 0.183-0.119l0.009-0.004c0.134-0.080 0.267-0.16 0.267-0.16l0.213-0.053 0.018-0.11c-0.086 0.046-0.171 0.089-0.258 0.138-0.828 0.488-1.539 1.063-2.156 1.726l-0.005 0.006zM17.902 19.111c0.226-0.718 0.444-1.462 0.648-2.227 1.818-6.773 2.027-12.607 0.472-13.023-0.67-0.18-1.559 0.677-2.5 2.25h-0.030c1.114 0.027 2.173 0.228 3.161 0.578l-0.071-0.022c0.018 0.324 0.020 0.623 0.019 0.865v0c0 0.196-0.003 0.352-0.007 0.443-0.030 0.853-0.107 1.723-0.22 2.601-0.038-0.014-0.083-0.024-0.129-0.028l-0.002-0c-0.018-0.006-0.039-0.009-0.061-0.009s-0.043 0.003-0.063 0.009l0.002-0c-0.052-0.043-0.098-0.092-0.137-0.146l-0.002-0.002c-0.061-0.080-0.148-0.138-0.248-0.159l-0.003-0.001c-0.14-0.048-0.13 0.053-0.13 0.053-0.073 0.048-0.163 0.076-0.259 0.076-0.013 0-0.027-0.001-0.040-0.002l0.002 0c-0.001-0-0.003-0-0.004-0-0.101 0-0.185 0.076-0.198 0.173l-0 0.001-0.121 0.103c-0.029 0.054-0.079 0.095-0.138 0.111l-0.002 0c-0 0-0.001 0-0.002 0-0.046 0-0.090 0.007-0.131 0.019l0.003-0.001c-0.017 0.062-0.030 0.135-0.036 0.209l-0 0.004c-0 0.043-0.032 0.079-0.074 0.085l-0 0c-0.061 0.012-0.115 0.028-0.166 0.049l0.006-0.002c-0.078 0.035-0.142 0.069-0.204 0.106l0.009-0.005c-0.050 0.050-0.105 0.096-0.163 0.137l-0.004 0.003c-0.13 0.073-0.176 0.101-0.176 0.101l-0.176 0.037 0.091 0.092-0.139 0.028c-0.002 0.015-0.003 0.032-0.003 0.049 0 0.035 0.004 0.069 0.012 0.102l-0.001-0.003c0.038 0.046 0.095 0.075 0.159 0.075 0 0 0.001 0 0.001 0h-0c-0.059 0.046-0.127 0.087-0.199 0.119l-0.006 0.003c-0.112 0.047-0.112 0.064-0.102 0.111 0.045 0.105 0.142 0.181 0.258 0.195l0.002 0c0.188 0.047 0.053-0.009 0.139-0.053 0.050-0.028 0.108-0.053 0.169-0.073l0.007-0.002c0.050 0.077 0.089 0.166 0.112 0.261l0.001 0.006c0 0.083-0.028 0.241-0.018 0.298s0.101-0.019 0.101-0.019l-0.083 0.092s0.018 0.166 0.018 0.213 0.165 0.018 0.165-0.028c0.039-0.078 0.118-0.131 0.21-0.131 0.007 0 0.015 0 0.022 0.001l-0.001-0c0.139-0.010 0.121-0.027 0.121-0.139 0.003-0.094 0.013-0.184 0.029-0.271l-0.002 0.011 0.16-0.047s0.091-0.068 0.15-0.124c0.013-0.013 0.025-0.027 0.036-0.042l0.001-0.001c0.019-0.030-0.003-0.060-0.037-0.088s-0.063-0.048-0.085-0.068c-0.042-0.073-0.066-0.161-0.066-0.254 0-0.012 0-0.024 0.001-0.035l-0 0.002c-0.001-0.009-0.001-0.019-0.001-0.029 0-0.033 0.004-0.065 0.012-0.095l-0.001 0.003c0.024-0.047 0.072-0.079 0.128-0.079 0.004 0 0.008 0 0.012 0.001l-0.001-0 0.018-0.005c0.065-0.019 0.148-0.129 0.267-0.186s-0.065-0.065-0.065-0.065 0.019-0.101 0.037-0.186 0.259 0.028 0.259 0.028l0.093 0.11-0.111 0.084-0.128 0.193-0.186 0.242 0.149 0.388c0.062 0.032 0.135 0.052 0.213 0.053h0c0.089-0.012 0.169-0.048 0.233-0.101l-0.001 0.001c0.078-0.034 0.169-0.062 0.264-0.079l0.007-0.001-0.043 0.259c-0.001 0-0.002 0-0.003 0-0.068 0-0.135-0.006-0.199-0.019l0.007 0.001c-0.122 0.022-0.228 0.049-0.331 0.084l0.016-0.005c-0.132 0.014-0.053 0.107-0.053 0.171 0.044 0.067 0.107 0.117 0.182 0.144l0.003 0.001-0.145 0.092c-0.034-0.076-0.109-0.129-0.196-0.131h-0c-0.079 0.061-0.136 0.147-0.159 0.246l-0.001 0.003c-0.008 0.025-0.013 0.054-0.013 0.085 0 0.070 0.025 0.133 0.067 0.182l-0-0c-0.068 0.010-0.129 0.031-0.184 0.061l0.003-0.001c-0.010 0.007-0.020 0.012-0.030 0.018-0.092 0.065-0.118 0.014-0.118 0.014-0.027-0.041-0.068-0.069-0.117-0.079l-0.001-0c-0.086 0.036-0.161 0.080-0.229 0.132l0.002-0.002c-0.043 0.006-0.094 0.010-0.145 0.010s-0.101-0.004-0.15-0.011l0.006 0.001-0.146-0.16-0.121 0.12c-0.068-0.020-0.126-0.057-0.171-0.106l-0-0c-0.063-0.079 0-0.065-0.013-0.131s-0.039-0.065-0.039-0.065l0.066-0.107 0.171-0.107c0.006-0.032 0.010-0.069 0.010-0.107 0-0.085-0.018-0.165-0.052-0.237l0.001 0.004c-0.080-0.107-0.080 0.107-0.080 0.107l-0.263 0.17 0.014 0.356-0.053 0.157-0.098-0.019-0.066 0.079c-0.048-0.028-0.104-0.054-0.162-0.076l-0.008-0.003c-0.114 0.004-0.216 0.054-0.29 0.13l-0 0-0.023 0.059-0.042 0.098-0.145-0.027-0.079 0.092h-0.16c-0.067 0-0.026 0.118-0.026 0.118-0.027 0.030-0.059 0.054-0.095 0.071l-0.002 0.001-0.023-0.030c-0.012-0.004-0.026-0.006-0.040-0.006-0.040 0-0.077 0.017-0.103 0.044l-0 0c-0.024 0.017-0.052 0.029-0.083 0.036l-0.002 0c-0.037 0.009-0.070 0.012-0.070 0.012l-0.067-0.172s-0.048-0.087-0.094-0.019c-0.021 0.023-0.034 0.053-0.034 0.087 0 0.010 0.001 0.019 0.003 0.028l-0-0.001 0.020 0.117-0.096 0.009-0.019-0.006-0.048-0.014-0.166-0.1-0.025-0.014s-0.115-0.020-0.094 0.053 0.115 0.172 0.115 0.22c0 0.005 0.003 0.010 0.006 0.013l0 0c0.065 0.011 0.122 0.041 0.166 0.084l-0-0c-0.013 0.058-0.044 0.108-0.087 0.144l-0 0c0.040 0.036 0.065 0.086 0.067 0.143v0c-0.001 0.095-0.015 0.187-0.041 0.274l0.002-0.007c-0.019 0.057-0.067 0.038-0.086 0.097-0.008 0.018-0.015 0.034-0.024 0.048l0.001-0.002c-0.023 0.036-0.047 0.068-0.073 0.097l0.001-0.001c-0.043 0.013-0.092 0.021-0.144 0.021-0.017 0-0.034-0.001-0.051-0.003l0.002 0c-0.050-0.042-0.107-0.078-0.168-0.105l-0.004-0.002c-0.009-0.003-0.020-0.004-0.032-0.004-0.005 0-0.011 0-0.016 0.001l0.001-0c-0.011 0.004-0.023 0.006-0.036 0.006-0.036 0-0.067-0.016-0.089-0.041l-0-0c-0.067-0.052-0.142-0.097-0.224-0.131l-0.007-0.003c-0.048-0.019-0.088-0.052-0.114-0.094l-0.001-0.001s-0.015-0.010-0.035-0.019c-0.034-0.022-0.074-0.039-0.116-0.047l-0.002-0c-0.050 0.017-0.092 0.047-0.124 0.086l-0 0.001c0.005 0.026 0.008 0.056 0.008 0.086s-0.003 0.060-0.009 0.089l0-0.003c0.003 0.014 0.005 0.030 0.005 0.046 0 0.051-0.016 0.098-0.043 0.137l0.001-0.001c-0.056 0.038-0.067 0.009-0.076 0.087s0.038 0.038-0.038 0.115c-0.027 0.039-0.056 0.072-0.087 0.103l-0 0c-0.007 0.004-0.013 0.008-0.019 0.013l0-0c-0.064 0.022-0.116 0.062-0.153 0.114l-0.001 0.001c-0.041 0.065-0.066 0.145-0.066 0.23v0c0.057 0.117 0.127 0.218 0.21 0.306l-0.001-0.001 0.030 0.009c0.043 0.006 0.077 0.037 0.087 0.077l0 0.001c0 0.068-0.078 0.097 0 0.145 0.031 0.026 0.059 0.054 0.084 0.085l0.001 0.001c0.084 0.027 0.188 0.053 0.294 0.073l0.015 0.002c0.157 0.030 0.313 0.059 0.313 0.059l0.107-0.076h0.185l0.047-0.163 0.144-0.009 0.010-0.155s-0.019-0.153 0.028-0.153c0.061-0.020 0.114-0.047 0.162-0.081l-0.002 0.001c0.067-0.041 0.127-0.084 0.127-0.084s0.037 0.008 0.086 0.014c0.028 0.007 0.059 0.012 0.092 0.012 0.039 0 0.077-0.006 0.112-0.017l-0.003 0.001c0.055-0.057 0.106-0.12 0.151-0.187l0.003-0.005c-0.006-0.026-0.009-0.056-0.009-0.087s0.003-0.061 0.010-0.090l-0.001 0.003c0.005-0.015 0.018-0.025 0.034-0.025 0 0 0.001 0 0.001 0h-0c0.012-0.001 0.026-0.001 0.040-0.001 0.101 0 0.196 0.025 0.28 0.070l-0.003-0.002c0.069 0.065 0.158 0.109 0.256 0.123l0.002 0c0.071-0.024 0.133-0.058 0.188-0.1l-0.001 0.001 0.023-0.017c0.020-0.015 0.078-0.053 0.14-0.101l0.004 0.007c0.069 0.007 0.129 0.039 0.172 0.087l0 0c0.028 0.056 0.045 0.122 0.045 0.192 0 0.027-0.002 0.053-0.007 0.078l0-0.003c0.033 0.086 0.093 0.155 0.17 0.199l0.002 0.001c0.048 0.057 0.279 0.364 0.355 0.459s0.23 0.267 0.23 0.267l0.077 0.183-0.16 0.115c-0.084-0.004-0.164-0.015-0.241-0.031l0.010 0.002c-0.007-0.002-0.015-0.002-0.023-0.002-0.034 0-0.064 0.016-0.084 0.041l-0 0c-0.047-0.028-0.088-0.059-0.125-0.095l0 0c-0.087-0.077-0.028 0.010-0.134 0.068s0.134 0.143 0.193 0.191c0.061 0.056 0.117 0.116 0.168 0.18l0.002 0.003c0.038 0.047 0.134-0.018 0.134-0.096 0-0.051 0.004-0.101 0.011-0.149l-0.001 0.006h0.173l0.107-0.124 0.088-0.076 0.038-0.107-0.067-0.191c0.046-0.016 0.1-0.030 0.155-0.038l0.005-0.001c0.048 0.034 0.082 0.084 0.096 0.142l0 0.002 0.050 0.019c0-0.001 0-0.003 0-0.004 0-0.056-0.011-0.109-0.030-0.158l0.001 0.003c-0.054-0.059-0.114-0.112-0.178-0.158l-0.003-0.002c-0.087-0.033-0.16-0.069-0.23-0.11l0.007 0.004c-0.079-0.099-0.151-0.211-0.214-0.329l-0.006-0.012c-0.020-0.035-0.032-0.076-0.032-0.121 0-0.015 0.001-0.029 0.004-0.043l-0 0.001c-0.046-0.063-0.094-0.119-0.145-0.171l0 0c-0.018-0.038-0.028-0.082-0.028-0.129 0-0.011 0.001-0.022 0.002-0.033l-0 0.001s0.086-0.058 0.182-0.115c0.022-0.009 0.040-0.024 0.053-0.043l0-0c0.064 0.059 0.112 0.135 0.137 0.221l0.001 0.003c0.007 0.088 0.027 0.169 0.059 0.245l-0.002-0.005c0.071 0.079 0.173 0.13 0.287 0.133h0.001c0.154 0.028 0.107 0.134 0.107 0.134 0.069 0.081 0.124 0.177 0.158 0.282l0.002 0.006c0.018 0.115 0.018 0.172 0.028 0.316 0.027 0.113 0.070 0.212 0.126 0.302l-0.002-0.004c0.048 0.132 0.066 0.132 0.095 0.237 0.013 0.049 0.022 0.097 0.040 0.145q-0.142 0.526-0.301 1.060c-0.072 0.11-0.126 0.24-0.153 0.379l-0.001 0.007c-0.020 0.012-0.044 0.021-0.069 0.027l-0.002 0-0.199-0.048c-0.131-0.086-0.281-0.163-0.439-0.225l-0.017-0.006c-0.078-0.102-0.152-0.216-0.218-0.336l-0.007-0.014c-0.026-0.033-0.066-0.053-0.111-0.053-0.020 0-0.040 0.004-0.058 0.012l0.001-0c-0.127-0.022-0.24-0.066-0.34-0.129l0.004 0.002c-0.030-0.037-0.080-0.094-0.12-0.139s-0.063-0.070-0.063-0.070c0.019-0.018 0.040-0.036 0.061-0.052l0.002-0.001c0.037-0.036 0.081-0.065 0.13-0.084l0.003-0.001c0.070-0.015-0.028-0.155-0.112-0.295s0.224-0.182 0.21-0.252c-0.061-0.058-0.14-0.097-0.229-0.107l-0.002-0h-0.007c-0.042-0.011-0.090-0.017-0.139-0.017s-0.098 0.006-0.143 0.018l0.004-0.001-0.267-0.053s-0.084 0.027-0.154 0.053c-0.009 0.003-0.020 0.004-0.032 0.004-0.022 0-0.042-0.006-0.059-0.016l0.001 0c-0.070-0.034-0.126-0.090-0.159-0.158l-0.001-0.002c-0.036-0.044-0.090-0.071-0.15-0.071-0.017 0-0.033 0.002-0.048 0.006l0.001-0c-0.041-0.002-0.079-0.013-0.112-0.032l0.001 0.001c-0.028-0.019-0.062-0.030-0.098-0.030-0.002 0-0.003 0-0.004 0h0c-0.061 0-0.118 0.035-0.191 0.045-0.091 0.012-0.213 0.042-0.293 0.053-0.013 0.003-0.028 0.005-0.043 0.005h-0c-0.096 0.019-0.181 0.058-0.253 0.113l0.002-0.001c-0.098 0.053-0.125-0.154-0.125-0.154-0.031-0.001-0.060-0.004-0.089-0.010l0.003 0.001c-0.096-0.019-0.18-0.045-0.261-0.078l0.009 0.003c-0.21-0.085-0.113-0.21-0.113-0.21s-0.038 0.031-0.118 0.101c-0.027 0.022-0.053 0.050-0.090 0.081-0.067 0.101-0.18 0.166-0.308 0.167h-0c-0.006-0-0.013-0-0.020-0-0.097 0-0.187 0.032-0.26 0.086l0.001-0.001c-0.107 0.11-0.198 0.237-0.269 0.376l-0.004 0.009c-1.882-0.635-3.469-1.322-4.988-2.122l0.184 0.088c-0.065-0.035-0.17-0.092-0.299-0.165v0c-0.221-0.124-0.515-0.299-0.828-0.5 0.22-1.116 0.591-2.108 1.097-3.015l-0.026 0.052c-0.008 0.011-0.015 0.023-0.019 0.036l-0 0.001c-1.832 0.027-3.020 0.37-3.2 1.039-0.416 1.556 4.741 4.289 11.52 6.106 0.77 0.186 1.523 0.369 2.259 0.532zM15.84 16.249c-0.029 0.028-0.047 0.068-0.047 0.111 0 0.004 0 0.008 0 0.012l-0-0.001c0.022 0.025 0.051 0.044 0.084 0.053l0.001 0c0.012 0.002 0.026 0.003 0.040 0.003 0.027 0 0.054-0.004 0.079-0.011l-0.002 0c0.022-0.005 0.050-0.012 0.081-0.020 0.092-0.027 0.037-0.075 0.053-0.139 0.009-0.080 0.028-0.153 0.055-0.222l-0.002 0.006c0.037-0.065-0.076-0.113-0.076-0.113s-0.087 0.122-0.118 0.171l-0.003 0.006c-0.037 0.059-0.086 0.107-0.144 0.142l-0.002 0.001zM15.994 15.747c0.075-0.007 0.14-0.044 0.184-0.098l0-0c0.027-0.075 0.018-0.037 0.047-0.122s-0.076 0.028-0.076 0.028l-0.123 0.075-0.033 0.073-0.022 0.050c0.009-0.001 0.017-0.003 0.025-0.006l-0.001 0z"></path>
</svg>
