<svg  xmlns="http://www.w3.org/2000/svg"  viewBox="0 0 512.026 512.026" width="100%" height="100%" id="img1">

<path d="M501.946 450.672L273.472 41.84c-7.633-13.658-27.285-13.658-34.917 0L10.081 450.672c-7.45 13.331 2.187 29.757 17.459 29.757h456.948c15.271 0 24.908-16.426 17.458-29.757z" fill="#cddccd"/><path d="M134.84 454.925L256.013 31.597c-6.821 0-13.642 3.414-17.459 10.243L10.081 450.672c-7.45 13.331 2.187 29.757 17.459 29.757h126.528c-13.292 0-22.886-12.726-19.228-25.504z" fill="#ffde83"/><ellipse cx="230.632" cy="405.552" fill="#ff7591" rx="29.387" ry="23.403"/><ellipse cx="389.922" cy="405.552" fill="#ff7591" rx="29.387" ry="23.403"/><path d="M333.971 387.571c0-14.643-10.608-16.019-23.693-16.019-13.086 0-23.694 1.376-23.694 16.019s10.608 26.513 23.694 26.513c13.085 0 23.693-11.87 23.693-26.513z" fill="#3b4456"/><path d="M235.545 385.113a7.5 7.5 0 01-7.5-7.5v-12a7.5 7.5 0 0115 0v12a7.5 7.5 0 01-7.5 7.5z"/><g><path d="M310.277 421.584c-17.2 0-31.194-15.258-31.194-34.013 0-23.519 21.859-23.519 31.194-23.519s31.193 0 31.193 23.519c.001 18.755-13.992 34.013-31.193 34.013zm0-42.532c-15.539 0-16.194 2.611-16.194 8.519 0 10.484 7.265 19.013 16.194 19.013s16.193-8.529 16.193-19.013c.001-5.907-.654-8.519-16.193-8.519z"/></g><g><path d="M385.009 385.113a7.5 7.5 0 01-7.5-7.5v-12a7.5 7.5 0 0115 0v12a7.5 7.5 0 01-7.5 7.5z"/></g><g><path d="M508.493 447.013l-63.745-114.064a7.5 7.5 0 00-10.206-2.888 7.5 7.5 0 00-2.888 10.206l63.745 114.064c2.187 3.913 2.138 8.558-.13 12.423-2.269 3.867-6.299 6.175-10.782 6.175h-330.42a12.397 12.397 0 01-9.981-4.975 12.394 12.394 0 01-2.036-10.964l36.489-127.476H201.6a7.5 7.5 0 000-15h-18.768L224.4 169.295h49.265a7.5 7.5 0 000-15h-44.971l32.635-114.012a12.386 12.386 0 015.597 5.216l105.569 188.905h-45.777a7.5 7.5 0 000 15h54.16l34.237 61.264a7.499 7.499 0 0010.206 2.888 7.5 7.5 0 002.888-10.206l-36.331-65.011-.016-.029L280.019 38.182c-4.928-8.819-13.902-14.084-24.005-14.084l-.066.002a8.085 8.085 0 00-.271.009c-9.964.116-18.795 5.353-23.668 14.073l-58.653 104.954a7.5 7.5 0 002.888 10.206 7.5 7.5 0 0010.206-2.888l56.87-101.767-31.737 110.877-.001.004-44.352 154.945h-35.468a7.5 7.5 0 000 15h31.175L127.63 452.861c-1.951 6.818-1.231 13.913 1.933 20.068H27.54c-4.482 0-8.513-2.308-10.782-6.175-2.268-3.866-2.317-8.51-.13-12.423l153.055-273.877a7.5 7.5 0 00-2.888-10.206 7.499 7.499 0 00-10.206 2.888L3.534 447.013c-4.811 8.608-4.704 18.826.287 27.332s13.857 13.584 23.719 13.584h456.947c9.862 0 18.729-5.078 23.719-13.584 4.99-8.505 5.098-18.723.287-27.332z"/></g>




</svg>

